<?xml version="1.0" encoding="UTF-8" standalone="no"?>
<!DOCTYPE svg PUBLIC "-//W3C//DTD SVG 1.1//EN"
 "http://www.w3.org/Graphics/SVG/1.1/DTD/svg11.dtd">
<!-- Generated by graphviz version 2.43.0 (0)
 -->
<!-- Title: %3 Pages: 1 -->
<svg width="1561pt" height="404pt"
 viewBox="0.00 0.00 1561.33 404.00" xmlns="http://www.w3.org/2000/svg" xmlns:xlink="http://www.w3.org/1999/xlink">
<g id="graph0" class="graph" transform="scale(1 1) rotate(0) translate(4 400)">
<title>%3</title>
<polygon fill="white" stroke="transparent" points="-4,4 -4,-400 1557.33,-400 1557.33,4 -4,4"/>
<!-- [root] module.servers.aws_eip.ip (expand) -->
<g id="node1" class="node">
<title>[root] module.servers.aws_eip.ip (expand)</title>
<polygon fill="none" stroke="black" points="864.05,-252 658.05,-252 658.05,-216 864.05,-216 864.05,-252"/>
<text text-anchor="middle" x="761.05" y="-230.3" font-family="Times,serif" font-size="14.00">module.servers.aws_eip.ip</text>
</g>
<!-- [root] module.servers.aws_instance.web (expand) -->
<g id="node2" class="node">
<title>[root] module.servers.aws_instance.web (expand)</title>
<polygon fill="none" stroke="black" points="961.05,-180 701.05,-180 701.05,-144 961.05,-144 961.05,-180"/>
<text text-anchor="middle" x="831.05" y="-158.3" font-family="Times,serif" font-size="14.00">module.servers.aws_instance.web</text>
</g>
<!-- [root] module.servers.aws_eip.ip (expand)&#45;&gt;[root] module.servers.aws_instance.web (expand) -->
<g id="edge5" class="edge">
<title>[root] module.servers.aws_eip.ip (expand)&#45;&gt;[root] module.servers.aws_instance.web (expand)</title>
<path fill="none" stroke="black" d="M778.35,-215.7C786.91,-207.14 797.39,-196.66 806.74,-187.3"/>
<polygon fill="black" stroke="black" points="809.35,-189.65 813.94,-180.1 804.4,-184.7 809.35,-189.65"/>
</g>
<!-- [root] provider[&quot;registry.terraform.io/hashicorp/aws&quot;] -->
<g id="node6" class="node">
<title>[root] provider[&quot;registry.terraform.io/hashicorp/aws&quot;]</title>
<polygon fill="none" stroke="black" points="342.05,-108 16.78,-90 342.05,-72 667.31,-90 342.05,-108"/>
<text text-anchor="middle" x="342.05" y="-86.3" font-family="Times,serif" font-size="14.00">provider[&quot;registry.terraform.io/hashicorp/aws&quot;]</text>
</g>
<!-- [root] module.servers.aws_instance.web (expand)&#45;&gt;[root] provider[&quot;registry.terraform.io/hashicorp/aws&quot;] -->
<g id="edge8" class="edge">
<title>[root] module.servers.aws_instance.web (expand)&#45;&gt;[root] provider[&quot;registry.terraform.io/hashicorp/aws&quot;]</title>
<path fill="none" stroke="black" d="M712.05,-143.97C627.91,-131.92 516.56,-115.98 438.06,-104.74"/>
<polygon fill="black" stroke="black" points="438.09,-101.21 427.7,-103.26 437.1,-108.14 438.09,-101.21"/>
</g>
<!-- [root] module.servers.var.image_id (expand) -->
<g id="node9" class="node">
<title>[root] module.servers.var.image_id (expand)</title>
<ellipse fill="none" stroke="black" cx="901.05" cy="-90" rx="215.56" ry="18"/>
<text text-anchor="middle" x="901.05" y="-86.3" font-family="Times,serif" font-size="14.00">[root] module.servers.var.image_id (expand)</text>
</g>
<!-- [root] module.servers.aws_instance.web (expand)&#45;&gt;[root] module.servers.var.image_id (expand) -->
<g id="edge6" class="edge">
<title>[root] module.servers.aws_instance.web (expand)&#45;&gt;[root] module.servers.var.image_id (expand)</title>
<path fill="none" stroke="black" d="M848.35,-143.7C856.91,-135.14 867.39,-124.66 876.74,-115.3"/>
<polygon fill="black" stroke="black" points="879.35,-117.65 883.94,-108.1 874.4,-112.7 879.35,-117.65"/>
</g>
<!-- [root] module.servers.var.servers (expand) -->
<g id="node10" class="node">
<title>[root] module.servers.var.servers (expand)</title>
<ellipse fill="none" stroke="black" cx="1344.05" cy="-90" rx="209.06" ry="18"/>
<text text-anchor="middle" x="1344.05" y="-86.3" font-family="Times,serif" font-size="14.00">[root] module.servers.var.servers (expand)</text>
</g>
<!-- [root] module.servers.aws_instance.web (expand)&#45;&gt;[root] module.servers.var.servers (expand) -->
<g id="edge7" class="edge">
<title>[root] module.servers.aws_instance.web (expand)&#45;&gt;[root] module.servers.var.servers (expand)</title>
<path fill="none" stroke="black" d="M955.89,-143.97C1038.51,-132.69 1146.14,-118.01 1227.1,-106.96"/>
<polygon fill="black" stroke="black" points="1227.9,-110.38 1237.34,-105.56 1226.96,-103.45 1227.9,-110.38"/>
</g>
<!-- [root] module.servers.aws_instance.web2 (expand) -->
<g id="node3" class="node">
<title>[root] module.servers.aws_instance.web2 (expand)</title>
<polygon fill="none" stroke="black" points="639.55,-252 370.55,-252 370.55,-216 639.55,-216 639.55,-252"/>
<text text-anchor="middle" x="505.05" y="-230.3" font-family="Times,serif" font-size="14.00">module.servers.aws_instance.web2</text>
</g>
<!-- [root] module.servers.aws_instance.web2 (expand)&#45;&gt;[root] module.servers.aws_instance.web (expand) -->
<g id="edge9" class="edge">
<title>[root] module.servers.aws_instance.web2 (expand)&#45;&gt;[root] module.servers.aws_instance.web (expand)</title>
<path fill="none" stroke="black" d="M584.38,-215.97C631.9,-205.76 692.43,-192.76 741.64,-182.2"/>
<polygon fill="black" stroke="black" points="742.6,-185.57 751.64,-180.05 741.13,-178.73 742.6,-185.57"/>
</g>
<!-- [root] module.servers.data.aws_ami.ubuntu (expand) -->
<g id="node4" class="node">
<title>[root] module.servers.data.aws_ami.ubuntu (expand)</title>
<polygon fill="none" stroke="black" points="484.05,-180 200.05,-180 200.05,-144 484.05,-144 484.05,-180"/>
<text text-anchor="middle" x="342.05" y="-158.3" font-family="Times,serif" font-size="14.00">module.servers.data.aws_ami.ubuntu</text>
</g>
<!-- [root] module.servers.data.aws_ami.ubuntu (expand)&#45;&gt;[root] provider[&quot;registry.terraform.io/hashicorp/aws&quot;] -->
<g id="edge11" class="edge">
<title>[root] module.servers.data.aws_ami.ubuntu (expand)&#45;&gt;[root] provider[&quot;registry.terraform.io/hashicorp/aws&quot;]</title>
<path fill="none" stroke="black" d="M342.05,-143.7C342.05,-135.98 342.05,-126.71 342.05,-118.11"/>
<polygon fill="black" stroke="black" points="345.55,-118.1 342.05,-108.1 338.55,-118.1 345.55,-118.1"/>
</g>
<!-- [root] module.servers (expand) -->
<g id="node11" class="node">
<title>[root] module.servers (expand)</title>
<ellipse fill="none" stroke="black" cx="901.05" cy="-18" rx="154.87" ry="18"/>
<text text-anchor="middle" x="901.05" y="-14.3" font-family="Times,serif" font-size="14.00">[root] module.servers (expand)</text>
</g>
<!-- [root] module.servers.data.aws_ami.ubuntu (expand)&#45;&gt;[root] module.servers (expand) -->
<g id="edge10" class="edge">
<title>[root] module.servers.data.aws_ami.ubuntu (expand)&#45;&gt;[root] module.servers (expand)</title>
<path fill="none" stroke="black" d="M199.68,-156.42C120.56,-150.54 33.11,-137.36 8.05,-108 -2.34,-95.83 -2.93,-83.64 8.05,-72 32.75,-45.78 490.79,-29.73 741.01,-22.88"/>
<polygon fill="black" stroke="black" points="741.39,-26.37 751.29,-22.6 741.2,-19.37 741.39,-26.37"/>
</g>
<!-- [root] output.ip_address -->
<g id="node5" class="node">
<title>[root] output.ip_address</title>
<polygon fill="none" stroke="black" points="1218.55,-324 1079.55,-324 1079.55,-288 1224.55,-288 1224.55,-318 1218.55,-324"/>
<polyline fill="none" stroke="black" points="1218.55,-324 1218.55,-318 "/>
<polyline fill="none" stroke="black" points="1224.55,-318 1218.55,-318 "/>
<text text-anchor="middle" x="1152.05" y="-302.3" font-family="Times,serif" font-size="14.00">output.ip_address</text>
</g>
<!-- [root] module.servers.output.ip_address (expand) -->
<g id="node8" class="node">
<title>[root] module.servers.output.ip_address (expand)</title>
<ellipse fill="none" stroke="black" cx="1161.05" cy="-234" rx="241.26" ry="18"/>
<text text-anchor="middle" x="1161.05" y="-230.3" font-family="Times,serif" font-size="14.00">[root] module.servers.output.ip_address (expand)</text>
</g>
<!-- [root] output.ip_address&#45;&gt;[root] module.servers.output.ip_address (expand) -->
<g id="edge15" class="edge">
<title>[root] output.ip_address&#45;&gt;[root] module.servers.output.ip_address (expand)</title>
<path fill="none" stroke="black" d="M1154.27,-287.7C1155.26,-279.98 1156.46,-270.71 1157.56,-262.11"/>
<polygon fill="black" stroke="black" points="1161.04,-262.47 1158.85,-252.1 1154.1,-261.58 1161.04,-262.47"/>
</g>
<!-- [root] module.servers (close) -->
<g id="node7" class="node">
<title>[root] module.servers (close)</title>
<ellipse fill="none" stroke="black" cx="900.05" cy="-306" rx="144.07" ry="18"/>
<text text-anchor="middle" x="900.05" y="-302.3" font-family="Times,serif" font-size="14.00">[root] module.servers (close)</text>
</g>
<!-- [root] module.servers (close)&#45;&gt;[root] module.servers.aws_eip.ip (expand) -->
<g id="edge1" class="edge">
<title>[root] module.servers (close)&#45;&gt;[root] module.servers.aws_eip.ip (expand)</title>
<path fill="none" stroke="black" d="M867.11,-288.41C848.31,-278.94 824.52,-266.97 804.24,-256.75"/>
<polygon fill="black" stroke="black" points="805.71,-253.57 795.2,-252.2 802.56,-259.82 805.71,-253.57"/>
</g>
<!-- [root] module.servers (close)&#45;&gt;[root] module.servers.aws_instance.web2 (expand) -->
<g id="edge2" class="edge">
<title>[root] module.servers (close)&#45;&gt;[root] module.servers.aws_instance.web2 (expand)</title>
<path fill="none" stroke="black" d="M820.59,-290.92C760.37,-280.25 677.04,-265.48 611.13,-253.8"/>
<polygon fill="black" stroke="black" points="611.58,-250.32 601.12,-252.03 610.36,-257.22 611.58,-250.32"/>
</g>
<!-- [root] module.servers (close)&#45;&gt;[root] module.servers.data.aws_ami.ubuntu (expand) -->
<g id="edge3" class="edge">
<title>[root] module.servers (close)&#45;&gt;[root] module.servers.data.aws_ami.ubuntu (expand)</title>
<path fill="none" stroke="black" d="M900.15,-287.88C899.26,-267.35 894.38,-233.53 873.05,-216 844.16,-192.26 640.59,-177.39 494.11,-169.64"/>
<polygon fill="black" stroke="black" points="494.28,-166.14 484.11,-169.12 493.91,-173.13 494.28,-166.14"/>
</g>
<!-- [root] module.servers (close)&#45;&gt;[root] module.servers.output.ip_address (expand) -->
<g id="edge4" class="edge">
<title>[root] module.servers (close)&#45;&gt;[root] module.servers.output.ip_address (expand)</title>
<path fill="none" stroke="black" d="M957.97,-289.46C996.9,-279.02 1048.47,-265.19 1089.89,-254.08"/>
<polygon fill="black" stroke="black" points="1090.9,-257.44 1099.65,-251.47 1089.08,-250.68 1090.9,-257.44"/>
</g>
<!-- [root] module.servers.output.ip_address (expand)&#45;&gt;[root] module.servers.aws_instance.web (expand) -->
<g id="edge12" class="edge">
<title>[root] module.servers.output.ip_address (expand)&#45;&gt;[root] module.servers.aws_instance.web (expand)</title>
<path fill="none" stroke="black" d="M1084.92,-216.85C1036.21,-206.52 972.76,-193.06 921.48,-182.18"/>
<polygon fill="black" stroke="black" points="921.9,-178.69 911.39,-180.04 920.45,-185.54 921.9,-178.69"/>
</g>
<!-- [root] module.servers.var.image_id (expand)&#45;&gt;[root] module.servers (expand) -->
<g id="edge13" class="edge">
<title>[root] module.servers.var.image_id (expand)&#45;&gt;[root] module.servers (expand)</title>
<path fill="none" stroke="black" d="M901.05,-71.7C901.05,-63.98 901.05,-54.71 901.05,-46.11"/>
<polygon fill="black" stroke="black" points="904.55,-46.1 901.05,-36.1 897.55,-46.1 904.55,-46.1"/>
</g>
<!-- [root] module.servers.var.servers (expand)&#45;&gt;[root] module.servers (expand) -->
<g id="edge14" class="edge">
<title>[root] module.servers.var.servers (expand)&#45;&gt;[root] module.servers (expand)</title>
<path fill="none" stroke="black" d="M1248.74,-73.94C1175.03,-62.29 1073.34,-46.22 998.97,-34.47"/>
<polygon fill="black" stroke="black" points="999.09,-30.95 988.67,-32.85 998,-37.86 999.09,-30.95"/>
</g>
<!-- [root] provider[&quot;registry.terraform.io/hashicorp/aws&quot;] (close) -->
<g id="node12" class="node">
<title>[root] provider[&quot;registry.terraform.io/hashicorp/aws&quot;] (close)</title>
<ellipse fill="none" stroke="black" cx="446.05" cy="-306" rx="291.65" ry="18"/>
<text text-anchor="middle" x="446.05" y="-302.3" font-family="Times,serif" font-size="14.00">[root] provider[&quot;registry.terraform.io/hashicorp/aws&quot;] (close)</text>
</g>
<!-- [root] provider[&quot;registry.terraform.io/hashicorp/aws&quot;] (close)&#45;&gt;[root] module.servers.aws_eip.ip (expand) -->
<g id="edge16" class="edge">
<title>[root] provider[&quot;registry.terraform.io/hashicorp/aws&quot;] (close)&#45;&gt;[root] module.servers.aws_eip.ip (expand)</title>
<path fill="none" stroke="black" d="M520.3,-288.5C566.5,-278.23 626.11,-264.99 674.46,-254.24"/>
<polygon fill="black" stroke="black" points="675.28,-257.65 684.28,-252.06 673.76,-250.81 675.28,-257.65"/>
</g>
<!-- [root] provider[&quot;registry.terraform.io/hashicorp/aws&quot;] (close)&#45;&gt;[root] module.servers.aws_instance.web2 (expand) -->
<g id="edge17" class="edge">
<title>[root] provider[&quot;registry.terraform.io/hashicorp/aws&quot;] (close)&#45;&gt;[root] module.servers.aws_instance.web2 (expand)</title>
<path fill="none" stroke="black" d="M460.63,-287.7C467.71,-279.3 476.33,-269.07 484.09,-259.86"/>
<polygon fill="black" stroke="black" points="486.86,-262.01 490.63,-252.1 481.51,-257.49 486.86,-262.01"/>
</g>
<!-- [root] provider[&quot;registry.terraform.io/hashicorp/aws&quot;] (close)&#45;&gt;[root] module.servers.data.aws_ami.ubuntu (expand) -->
<g id="edge18" class="edge">
<title>[root] provider[&quot;registry.terraform.io/hashicorp/aws&quot;] (close)&#45;&gt;[root] module.servers.data.aws_ami.ubuntu (expand)</title>
<path fill="none" stroke="black" d="M404.92,-287.99C388.96,-279.43 371.93,-267.52 361.05,-252 348.4,-233.97 343.89,-209.18 342.41,-190.34"/>
<polygon fill="black" stroke="black" points="345.9,-190.1 341.86,-180.3 338.91,-190.48 345.9,-190.1"/>
</g>
<!-- [root] root -->
<g id="node13" class="node">
<title>[root] root</title>
<ellipse fill="none" stroke="black" cx="900.05" cy="-378" rx="58.49" ry="18"/>
<text text-anchor="middle" x="900.05" y="-374.3" font-family="Times,serif" font-size="14.00">[root] root</text>
</g>
<!-- [root] root&#45;&gt;[root] output.ip_address -->
<g id="edge20" class="edge">
<title>[root] root&#45;&gt;[root] output.ip_address</title>
<path fill="none" stroke="black" d="M941.94,-365.36C979.76,-354.86 1036.17,-339.19 1081.02,-326.73"/>
<polygon fill="black" stroke="black" points="1081.99,-330.09 1090.69,-324.04 1080.12,-323.35 1081.99,-330.09"/>
</g>
<!-- [root] root&#45;&gt;[root] module.servers (close) -->
<g id="edge19" class="edge">
<title>[root] root&#45;&gt;[root] module.servers (close)</title>
<path fill="none" stroke="black" d="M900.05,-359.7C900.05,-351.98 900.05,-342.71 900.05,-334.11"/>
<polygon fill="black" stroke="black" points="903.55,-334.1 900.05,-324.1 896.55,-334.1 903.55,-334.1"/>
</g>
<!-- [root] root&#45;&gt;[root] provider[&quot;registry.terraform.io/hashicorp/aws&quot;] (close) -->
<g id="edge21" class="edge">
<title>[root] root&#45;&gt;[root] provider[&quot;registry.terraform.io/hashicorp/aws&quot;] (close)</title>
<path fill="none" stroke="black" d="M848.85,-369.11C778.93,-358.33 651.67,-338.7 558.85,-324.39"/>
<polygon fill="black" stroke="black" points="559.27,-320.92 548.85,-322.85 558.2,-327.83 559.27,-320.92"/>
</g>
</g>
</svg>
